<svg width="462" height="530" viewBox="0 0 462 530" fill="none" xmlns="http://www.w3.org/2000/svg">
<path d="M85.6958 247.378V376.766L231 452.5L376.308 376.575V247.378H85.6958Z" fill="#CBD5E1"/>
<path d="M231 452.5L376.309 376.766V231.353L231 306.507V452.5Z" fill="#D6D6D6"/>
<path d="M231.009 452.5L85.6967 376.804V231.463L231.009 306.579V452.5Z" fill="#B8B8B8"/>
<path d="M289.116 126.295L231 156.33L172.879 126.295L27.5754 201.372L85.6916 231.398L27.5754 261.432L172.879 336.492L231 306.475L289.116 336.492L434.425 261.432L376.304 231.398L434.425 201.372L289.116 126.295Z" fill="white"/>
<path d="M230.995 156.33L85.6958 231.393L230.995 306.475L376.308 231.393L230.995 156.33Z" fill="#CBD5E1"/>
<g opacity="0.562345">
<path d="M376.303 231.463L231 156.61V306.316L376.303 231.463Z" fill="#B8B8B8"/>
<path d="M231 268.449L193.573 286.942L231 306.316L268.867 286.942L231 268.449Z" fill="#C9C9C9"/>
<path d="M229.811 258.033C208.678 239.372 168.454 194.985 231.335 171.148C289.27 149.187 307.465 152.709 328.011 135.829C357.919 111.246 339.362 39.6317 248.82 34.1754" stroke="#9F9F9F" stroke-width="4.52055" stroke-linecap="round" stroke-linejoin="round" stroke-dasharray="9.17 9.17"/>
</g>
<g opacity="0.562345">
<path d="M217.967 2.5C226.99 2.5 234.304 9.81425 234.304 18.8373C234.304 27.8603 226.99 35.1745 217.967 35.1745C208.944 35.1745 201.63 27.8603 201.63 18.8373C201.63 9.81425 208.944 2.5 217.967 2.5Z" fill="white"/>
<path d="M217.967 2.5C226.99 2.5 234.304 9.81425 234.304 18.8373C234.304 27.8603 226.99 35.1745 217.967 35.1745C208.944 35.1745 201.63 27.8603 201.63 18.8373C201.63 9.81425 208.944 2.5 217.967 2.5Z" stroke="#999999" stroke-width="3.16438" stroke-miterlimit="10"/>
<path d="M245.945 2.9249C252.369 2.9249 257.576 8.13257 257.576 14.5608C257.576 20.989 252.369 26.1967 245.945 26.1967C239.517 26.1967 234.304 20.989 234.304 14.5608C234.304 8.13257 239.517 2.9249 245.945 2.9249Z" fill="white"/>
<path d="M245.945 2.9249C252.369 2.9249 257.576 8.13257 257.576 14.5608C257.576 20.989 252.369 26.1967 245.945 26.1967C239.517 26.1967 234.304 20.989 234.304 14.5608C234.304 8.13257 239.517 2.9249 245.945 2.9249Z" stroke="#999999" stroke-width="3.16438" stroke-miterlimit="10"/>
<path d="M238.048 24.6733C241.3 24.6733 243.933 27.3074 243.933 30.55C243.933 33.7959 241.296 36.4358 238.048 36.4358C234.806 36.4358 232.171 33.7984 232.171 30.55C232.171 27.3049 234.803 24.6733 238.048 24.6733Z" fill="#868686" stroke="#999999" stroke-width="4.52055"/>
</g>
<path d="M69.5777 519.5V486.572H95.8817V492.428H76.7777V499.772H93.6737V505.58H76.7777V513.596H96.1697V519.5H69.5777ZM101.767 519.5V494.252H107.287L107.815 497.708H108.151C108.695 496.876 109.335 496.156 110.071 495.548C110.839 494.94 111.687 494.476 112.615 494.156C113.575 493.836 114.599 493.676 115.687 493.676C117.287 493.676 118.663 493.996 119.815 494.636C120.999 495.276 121.911 496.3 122.551 497.708H122.887C123.431 496.876 124.087 496.156 124.855 495.548C125.623 494.94 126.503 494.476 127.495 494.156C128.487 493.836 129.543 493.676 130.663 493.676C132.263 493.676 133.639 493.964 134.791 494.54C135.975 495.116 136.903 496.06 137.575 497.372C138.247 498.652 138.583 500.316 138.583 502.364V519.5H131.911V503.564C131.911 502.764 131.815 502.092 131.623 501.548C131.463 500.972 131.223 500.524 130.903 500.204C130.583 499.852 130.183 499.596 129.703 499.436C129.223 499.276 128.711 499.196 128.167 499.196C127.271 499.196 126.471 499.436 125.767 499.916C125.063 500.396 124.503 501.052 124.087 501.884C123.703 502.716 123.511 503.676 123.511 504.764V519.5H116.839V503.564C116.839 502.764 116.743 502.092 116.551 501.548C116.391 500.972 116.151 500.524 115.831 500.204C115.511 499.852 115.111 499.596 114.631 499.436C114.183 499.276 113.671 499.196 113.095 499.196C112.231 499.196 111.431 499.436 110.695 499.916C109.991 500.396 109.431 501.052 109.015 501.884C108.631 502.716 108.439 503.676 108.439 504.764V519.5H101.767ZM144.517 528.044V494.252H149.989L150.565 497.66H150.901C151.733 496.284 152.821 495.276 154.165 494.636C155.509 493.996 156.997 493.676 158.629 493.676C160.741 493.676 162.549 494.14 164.053 495.068C165.589 495.996 166.757 497.436 167.557 499.388C168.389 501.34 168.805 503.852 168.805 506.924C168.805 509.9 168.389 512.364 167.557 514.316C166.725 516.268 165.557 517.724 164.053 518.684C162.581 519.612 160.853 520.076 158.869 520.076C157.781 520.076 156.773 519.948 155.845 519.692C154.917 519.468 154.085 519.1 153.349 518.588C152.613 518.076 151.989 517.452 151.477 516.716H151.189V528.044H144.517ZM156.565 514.604C157.909 514.604 158.965 514.348 159.733 513.836C160.533 513.292 161.109 512.492 161.461 511.436C161.813 510.348 161.989 509.02 161.989 507.452V506.348C161.989 504.748 161.813 503.42 161.461 502.364C161.109 501.276 160.533 500.476 159.733 499.964C158.965 499.42 157.909 499.148 156.565 499.148C155.317 499.148 154.293 499.436 153.493 500.012C152.693 500.588 152.101 501.42 151.717 502.508C151.333 503.596 151.141 504.908 151.141 506.444V507.26C151.141 508.38 151.253 509.404 151.477 510.332C151.701 511.228 152.021 511.996 152.437 512.636C152.885 513.276 153.445 513.772 154.117 514.124C154.789 514.444 155.605 514.604 156.565 514.604ZM181.256 520.076C179.656 520.076 178.36 519.788 177.368 519.212C176.376 518.636 175.656 517.868 175.208 516.908C174.76 515.916 174.536 514.828 174.536 513.644V499.388H171.416V494.252H174.776L176.024 487.052H181.208V494.252H185.816V499.388H181.208V512.54C181.208 513.308 181.384 513.9 181.736 514.316C182.088 514.7 182.664 514.892 183.464 514.892H185.816V519.308C185.432 519.436 184.984 519.548 184.472 519.644C183.96 519.772 183.416 519.868 182.84 519.932C182.264 520.028 181.736 520.076 181.256 520.076ZM193.775 528.524C192.591 528.524 191.599 528.428 190.799 528.236C190.031 528.076 189.535 527.964 189.311 527.9V523.388H192.239C193.039 523.388 193.759 523.196 194.399 522.812C195.039 522.46 195.599 521.98 196.079 521.372C196.559 520.796 196.911 520.172 197.135 519.5L187.247 494.252H194.303L198.623 505.916C198.815 506.46 199.023 507.148 199.247 507.98C199.503 508.78 199.759 509.628 200.015 510.524C200.271 511.388 200.479 512.156 200.639 512.828H200.879C201.007 512.38 201.151 511.852 201.311 511.244C201.471 510.636 201.631 510.012 201.791 509.372C201.983 508.732 202.159 508.124 202.319 507.548C202.511 506.94 202.671 506.412 202.799 505.964L206.399 494.252H213.119L204.527 518.3C204.047 519.708 203.487 521.02 202.847 522.236C202.239 523.484 201.519 524.572 200.687 525.5C199.855 526.46 198.863 527.196 197.711 527.708C196.591 528.252 195.279 528.524 193.775 528.524ZM225.799 490.556V484.796H232.471V490.556H225.799ZM225.799 519.5V494.252H232.471V519.5H225.799ZM248.819 520.076C247.059 520.076 245.475 519.884 244.067 519.5C242.659 519.116 241.459 518.588 240.467 517.916C239.475 517.212 238.707 516.38 238.163 515.42C237.651 514.46 237.395 513.372 237.395 512.156C237.395 512.028 237.395 511.9 237.395 511.772C237.395 511.644 237.411 511.548 237.443 511.484H243.875C243.875 511.548 243.875 511.612 243.875 511.676C243.875 511.74 243.875 511.804 243.875 511.868C243.907 512.668 244.163 513.324 244.643 513.836C245.123 514.316 245.747 514.668 246.515 514.892C247.315 515.116 248.147 515.228 249.011 515.228C249.779 515.228 250.515 515.164 251.219 515.036C251.955 514.876 252.563 514.604 253.043 514.22C253.555 513.836 253.811 513.34 253.811 512.732C253.811 511.964 253.491 511.372 252.851 510.956C252.243 510.54 251.427 510.204 250.403 509.948C249.411 509.692 248.323 509.404 247.139 509.084C246.051 508.828 244.963 508.54 243.875 508.22C242.787 507.868 241.795 507.42 240.899 506.876C240.035 506.332 239.331 505.628 238.787 504.764C238.243 503.868 237.971 502.748 237.971 501.404C237.971 500.092 238.259 498.956 238.835 497.996C239.411 497.004 240.195 496.188 241.187 495.548C242.211 494.908 243.395 494.444 244.739 494.156C246.115 493.836 247.587 493.676 249.155 493.676C250.627 493.676 252.003 493.836 253.283 494.156C254.563 494.444 255.683 494.892 256.643 495.5C257.603 496.076 258.355 496.812 258.899 497.708C259.443 498.572 259.715 499.548 259.715 500.636C259.715 500.86 259.715 501.068 259.715 501.26C259.715 501.452 259.699 501.58 259.667 501.644H253.283V501.26C253.283 500.684 253.107 500.204 252.755 499.82C252.403 499.404 251.891 499.084 251.219 498.86C250.579 498.636 249.795 498.524 248.867 498.524C248.227 498.524 247.635 498.572 247.091 498.668C246.579 498.764 246.131 498.908 245.747 499.1C245.363 499.292 245.059 499.532 244.835 499.82C244.643 500.076 244.547 500.396 244.547 500.78C244.547 501.324 244.771 501.772 245.219 502.124C245.699 502.444 246.323 502.716 247.091 502.94C247.859 503.164 248.707 503.404 249.635 503.66C250.787 503.98 251.987 504.3 253.235 504.62C254.515 504.908 255.699 505.308 256.787 505.82C257.875 506.332 258.755 507.068 259.427 508.028C260.099 508.956 260.435 510.22 260.435 511.82C260.435 513.356 260.131 514.652 259.523 515.708C258.947 516.764 258.131 517.612 257.075 518.252C256.019 518.892 254.787 519.356 253.379 519.644C251.971 519.932 250.451 520.076 248.819 520.076ZM275.265 519.5V486.572H282.417V499.628H297.009V486.572H304.161V519.5H297.009V505.676H282.417V519.5H275.265ZM322.349 520.076C319.565 520.076 317.229 519.612 315.341 518.684C313.453 517.724 312.029 516.268 311.069 514.316C310.109 512.364 309.629 509.884 309.629 506.876C309.629 503.836 310.109 501.356 311.069 499.436C312.029 497.484 313.437 496.044 315.293 495.116C317.181 494.156 319.485 493.676 322.205 493.676C324.765 493.676 326.925 494.14 328.685 495.068C330.445 495.964 331.773 497.372 332.669 499.292C333.565 501.18 334.013 503.628 334.013 506.636V508.364H316.397C316.461 509.836 316.685 511.084 317.069 512.108C317.485 513.132 318.109 513.9 318.941 514.412C319.805 514.892 320.941 515.132 322.349 515.132C323.117 515.132 323.805 515.036 324.413 514.844C325.053 514.652 325.597 514.364 326.045 513.98C326.493 513.596 326.845 513.116 327.101 512.54C327.357 511.964 327.485 511.308 327.485 510.572H334.013C334.013 512.172 333.725 513.564 333.149 514.748C332.573 515.932 331.773 516.924 330.749 517.724C329.725 518.492 328.493 519.084 327.053 519.5C325.645 519.884 324.077 520.076 322.349 520.076ZM316.493 504.14H327.149C327.149 503.18 327.021 502.348 326.765 501.644C326.541 500.94 326.221 500.364 325.805 499.916C325.389 499.468 324.877 499.148 324.269 498.956C323.693 498.732 323.037 498.62 322.301 498.62C321.085 498.62 320.061 498.828 319.229 499.244C318.429 499.628 317.805 500.236 317.357 501.068C316.941 501.868 316.653 502.892 316.493 504.14ZM338.908 519.5V494.252H344.428L344.956 498.188H345.292C345.612 497.356 346.028 496.604 346.54 495.932C347.052 495.228 347.692 494.668 348.46 494.252C349.228 493.836 350.124 493.628 351.148 493.628C351.692 493.628 352.188 493.692 352.636 493.82C353.084 493.916 353.42 494.012 353.644 494.108V500.156H351.58C350.588 500.156 349.708 500.3 348.94 500.588C348.204 500.844 347.58 501.26 347.068 501.836C346.556 502.412 346.172 503.116 345.916 503.948C345.692 504.78 345.58 505.756 345.58 506.876V519.5H338.908ZM368.146 520.076C365.362 520.076 363.026 519.612 361.138 518.684C359.25 517.724 357.826 516.268 356.866 514.316C355.906 512.364 355.426 509.884 355.426 506.876C355.426 503.836 355.906 501.356 356.866 499.436C357.826 497.484 359.234 496.044 361.09 495.116C362.978 494.156 365.282 493.676 368.002 493.676C370.562 493.676 372.722 494.14 374.482 495.068C376.242 495.964 377.57 497.372 378.466 499.292C379.362 501.18 379.81 503.628 379.81 506.636V508.364H362.194C362.258 509.836 362.482 511.084 362.866 512.108C363.282 513.132 363.906 513.9 364.738 514.412C365.602 514.892 366.738 515.132 368.146 515.132C368.914 515.132 369.602 515.036 370.21 514.844C370.85 514.652 371.394 514.364 371.842 513.98C372.29 513.596 372.642 513.116 372.898 512.54C373.154 511.964 373.282 511.308 373.282 510.572H379.81C379.81 512.172 379.522 513.564 378.946 514.748C378.37 515.932 377.57 516.924 376.546 517.724C375.522 518.492 374.29 519.084 372.85 519.5C371.442 519.884 369.874 520.076 368.146 520.076ZM362.29 504.14H372.946C372.946 503.18 372.818 502.348 372.562 501.644C372.338 500.94 372.018 500.364 371.602 499.916C371.186 499.468 370.674 499.148 370.066 498.956C369.49 498.732 368.834 498.62 368.098 498.62C366.882 498.62 365.858 498.828 365.026 499.244C364.226 499.628 363.602 500.236 363.154 501.068C362.738 501.868 362.45 502.892 362.29 504.14ZM386.769 509.852L385.137 486.572H392.625L390.945 509.852H386.769ZM385.473 519.5V512.78H392.289V519.5H385.473Z" fill="#D6D6D6"/>
</svg>
